<svg width="35" height="35" viewBox="0 0 35 35" fill="none" xmlns="http://www.w3.org/2000/svg">
<path fill-rule="evenodd" clip-rule="evenodd" d="M35 17.5C35 27.165 27.165 35 17.5 35C7.83502 35 0 27.165 0 17.5C0 7.83502 7.83502 0 17.5 0C27.165 0 35 7.83502 35 17.5ZM15.4446 32.9658V25.7111H11.5864C11.5312 25.7111 11.4864 25.6663 11.4864 25.6111V20.6146C11.4864 20.5594 11.5312 20.5146 11.5864 20.5146H15.4446V17.7616C15.4446 13.2711 20.0022 11.6829 22.0308 11.6829H24.9502C25.0054 11.6829 25.0502 11.7276 25.0502 11.7829V16.2432C25.0502 16.2985 25.0054 16.3432 24.9502 16.3432H23.132C22.3821 16.3432 20.6045 17.0362 20.6045 18.3708V20.5146H24.9498C25.0097 20.5146 25.0561 20.5668 25.0492 20.6262L24.4647 25.6227C24.4588 25.6731 24.4161 25.7111 24.3654 25.7111H20.6045V32.7911C27.7328 31.3517 33.1 25.0526 33.1 17.5C33.1 8.88436 26.1156 1.9 17.5 1.9C8.88436 1.9 1.9 8.88436 1.9 17.5C1.9 25.4189 7.8004 31.9597 15.4446 32.9658ZM17.0446 32.9434V24.1111H13.0864V22.1146H17.0446V17.7616C17.0446 16.1524 17.8261 15.0842 18.8839 14.3564C20.0044 13.5855 21.3335 13.2829 22.0308 13.2829H23.4502V14.7432C22.48 14.7432 21.5608 14.9804 20.7323 15.504C19.9816 15.9783 19.0045 16.9118 19.0045 18.3708V22.1146H23.2641L23.0306 24.1111H19.0045V32.9434H17.0446Z" fill="white"/>
</svg>
