<svg width="38" height="38" viewBox="0 0 38 38" fill="none" xmlns="http://www.w3.org/2000/svg">
<path d="M31.1507 14.4975C31.6144 14.7457 31.7871 15.3186 31.5546 15.7903C31.2989 16.3091 30.6578 16.501 30.1471 16.2293C23.8016 12.8538 16.2129 12.0958 9.32318 14.1224C8.76224 14.2874 8.16728 13.9615 8.02863 13.3935C7.90539 12.8886 8.1901 12.3718 8.68837 12.2239C16.118 10.0187 24.3121 10.8375 31.1507 14.4975Z" fill="white"/>
<path d="M28.8793 19.2924C29.3038 19.5114 29.464 20.0318 29.2528 20.4602C29.0246 20.9233 28.4546 21.0975 27.9951 20.8623C22.6414 18.121 16.2664 17.6245 10.5513 19.4861C10.0401 19.6526 9.4851 19.3607 9.35763 18.8384C9.2494 18.395 9.49119 17.9393 9.92477 17.7967C16.1321 15.7544 23.0678 16.2949 28.8793 19.2924Z" fill="white"/>
<path d="M26.4698 24.3184C26.8641 24.526 27.0093 25.0117 26.8123 25.4114C26.5944 25.8535 26.0473 26.0152 25.6101 25.7876C21.3864 23.5886 16.3157 23.2401 11.83 24.8294C11.3405 25.0028 10.7955 24.7295 10.6724 24.225C10.573 23.8177 10.7869 23.3971 11.1815 23.2553C16.1543 21.468 21.791 21.8555 26.4698 24.3184Z" fill="white"/>
<path fill-rule="evenodd" clip-rule="evenodd" d="M38 19C38 29.4934 29.4934 38 19 38C8.50659 38 0 29.4934 0 19C0 8.50659 8.50659 0 19 0C29.4934 0 38 8.50659 38 19ZM36 19C36 28.3888 28.3888 36 19 36C9.61116 36 2 28.3888 2 19C2 9.61116 9.61116 2 19 2C28.3888 2 36 9.61116 36 19Z" fill="white"/>
</svg>
