<svg width="38" height="27" viewBox="0 0 38 27" fill="none" xmlns="http://www.w3.org/2000/svg">
<path fill-rule="evenodd" clip-rule="evenodd" d="M15.2104 9.05546C15.2104 8.5166 15.7937 8.17981 16.2604 8.44924L23.8582 12.8358C24.3248 13.1053 24.3248 13.7788 23.8582 14.0483L16.2604 18.4349C15.7937 18.7043 15.2104 18.3675 15.2104 17.8287V9.05546ZM21.9082 13.4421L16.7104 16.443V10.4411L21.9082 13.4421Z" fill="white"/>
<path fill-rule="evenodd" clip-rule="evenodd" d="M32.5187 25.9401C35.1387 25.7124 37.2675 23.7256 37.563 21.1124C37.8492 18.5813 38 15.9526 38 13.2558C38 10.5591 37.8492 7.9303 37.563 5.39921C37.2675 2.78598 35.1387 0.799198 32.5187 0.571542C28.2414 0.199886 23.7024 0 19 0C14.2975 0 9.75854 0.199882 5.48133 0.571531C2.86131 0.799185 0.732485 2.78597 0.436996 5.3992C0.150795 7.93029 0 10.5591 0 13.2558C0 15.9526 0.150794 18.5813 0.436995 21.1124C0.732485 23.7257 2.86131 25.7124 5.48133 25.9401C9.75854 26.3117 14.2975 26.5116 19 26.5116C23.7024 26.5116 28.2414 26.3117 32.5187 25.9401ZM36 13.2558C36 15.8783 35.8533 18.432 35.5757 20.8877C35.392 22.5119 34.061 23.7985 32.3456 23.9476C28.1276 24.3141 23.6463 24.5116 19 24.5116C14.3536 24.5116 9.87239 24.3141 5.65445 23.9476C3.93897 23.7985 2.60799 22.5119 2.42433 20.8877C2.14666 18.432 2 15.8783 2 13.2558C2 10.6333 2.14666 8.07961 2.42433 5.62392C2.60799 3.99968 3.93897 2.71308 5.65445 2.56402C9.87239 2.19752 14.3536 2 19 2C23.6463 2 28.1276 2.19753 32.3456 2.56403C34.061 2.71309 35.392 3.99969 35.5757 5.62393C35.8533 8.07961 36 10.6333 36 13.2558Z" fill="white"/>
</svg>
